<?xml version="1.0" standalone="no"?>
<!DOCTYPE svg PUBLIC "-//W3C//DTD SVG 20010904//EN"
 "http://www.w3.org/TR/2001/REC-SVG-20010904/DTD/svg10.dtd">
<svg version="1.0" xmlns="http://www.w3.org/2000/svg"
 width="1024.000000pt" height="1024.000000pt" viewBox="0 0 1024.000000 1024.000000"
 preserveAspectRatio="xMidYMid meet">
<metadata>
Created by potrace 1.14, written by Peter Selinger 2001-2017
</metadata>
<g transform="translate(0.000000,1024.000000) scale(0.100000,-0.100000)"
fill="#000000" stroke="none">
<path d="M4780 8736 c-665 -85 -1244 -360 -1714 -815 -510 -495 -822 -1148
-887 -1860 -16 -183 -7 -515 20 -691 92 -603 351 -1138 770 -1590 48 -52 129
-131 178 -175 l90 -80 -17 -80 c-10 -44 -46 -217 -80 -385 -60 -294 -62 -309
-57 -415 7 -136 26 -214 82 -331 70 -145 171 -261 299 -342 41 -26 44 -31 27
-37 -30 -9 -34 -37 -12 -99 22 -64 48 -104 104 -163 l40 -42 -434 2 c-426 2
-587 -7 -613 -33 -14 -14 -6 -18 50 -32 70 -17 4822 -25 4940 -8 88 13 115 23
99 39 -29 29 -126 34 -547 32 -236 -1 -428 -1 -428 2 0 2 18 24 41 48 46 50
109 170 109 210 0 30 -15 46 -49 51 -20 3 -13 10 48 52 168 114 292 305 337
519 29 138 20 230 -55 602 -38 187 -74 360 -80 384 l-10 44 153 151 c170 169
280 301 402 486 234 355 389 758 455 1190 29 190 36 535 16 730 -76 703 -382
1336 -883 1821 -449 435 -994 703 -1634 805 -142 22 -612 28 -760 10z m-1170
-1650 c6 -8 10 -25 8 -38 l-3 -23 -344 -3 c-245 -2 -348 1 -357 9 -19 16 -17
46 4 58 10 7 142 11 348 11 277 0 334 -2 344 -14z m2694 -2 c19 -19 20 -36 4
-52 -17 -17 -2369 -17 -2386 0 -16 16 -15 33 4 52 14 14 135 16 1189 16 1054
0 1175 -2 1189 -16z m1120 0 c19 -18 19 -20 6 -45 -10 -18 -24 -19 -320 -19
l-310 0 -6 27 c-13 51 1 53 322 53 253 0 295 -2 308 -16z m-2179 -193 c25 -8
18 -9 -42 -10 -95 -1 -163 -16 -248 -55 -144 -67 -361 -216 -510 -351 -43 -38
-85 -74 -94 -78 -10 -5 -25 -21 -34 -35 -8 -15 -36 -47 -60 -71 -40 -38 -49
-42 -76 -36 -17 4 -31 10 -31 14 0 13 262 264 345 330 185 148 404 274 518
297 64 14 180 11 232 -5z m-1941 -137 c19 -19 20 -36 4 -52 -19 -19 -382 -17
-398 3 -15 18 -4 52 18 58 9 3 94 5 189 6 144 1 174 -2 187 -15z m1255 9 c0
-5 -20 -23 -45 -41 l-45 -32 -407 2 -407 3 -3 24 c-7 50 -2 51 470 51 241 0
438 -3 437 -7z m2075 -9 c19 -18 19 -20 6 -45 -10 -18 -26 -19 -440 -19 l-430
0 -44 33 c-25 17 -45 35 -45 40 -1 4 210 7 468 7 414 0 471 -2 485 -16z m773
10 c27 -7 36 -29 23 -55 -10 -18 -24 -19 -280 -19 l-270 0 -6 27 c-13 49 5 53
270 53 133 0 251 -3 263 -6z m-1974 -329 c110 -19 284 -76 357 -116 30 -17 46
-27 35 -24 -196 63 -421 105 -556 105 -61 0 -75 -3 -101 -25 -36 -31 -118 -34
-173 -8 -31 15 -43 15 -93 5 -82 -17 -188 -72 -255 -131 -51 -44 -87 -64 -87
-45 0 17 62 81 116 120 177 127 461 171 757 119z m-1263 -4 c0 -6 -13 -24 -28
-41 l-28 -31 -594 1 c-419 0 -597 4 -607 11 -17 15 -17 34 3 53 14 14 85 16
635 16 379 0 619 -4 619 -9z m3251 -10 c20 -16 22 -23 13 -38 -11 -17 -46 -18
-662 -21 l-650 -2 -26 31 c-14 17 -26 35 -26 40 0 5 265 9 664 9 642 0 665 -1
687 -19z m-3000 -149 c-1 -28 4 -65 13 -87 19 -43 19 -45 8 -45 -17 0 -62 109
-62 148 0 45 7 55 28 43 12 -7 15 -22 13 -59z m-293 -112 c-24 -24 -29 -36
-24 -56 9 -34 -8 -23 -25 17 -12 29 -11 33 10 50 13 11 34 19 46 19 23 0 23
-1 -7 -30z m-827 -69 c20 -16 22 -23 13 -38 -10 -16 -30 -18 -206 -21 -175 -2
-196 -1 -202 14 -9 24 2 52 22 57 9 2 92 5 183 6 152 2 168 0 190 -18z m599
11 c0 -4 -9 -22 -20 -39 l-20 -33 -129 0 c-108 0 -130 3 -135 16 -11 29 -6 45
16 53 27 10 288 13 288 3z m3527 -15 c14 -13 15 -21 7 -35 -10 -16 -51 -17
-533 -20 l-521 -2 -20 32 c-11 18 -20 36 -20 41 0 4 241 6 535 5 496 -3 536
-4 552 -21z m-3398 -26 c11 -26 8 -34 -42 -112 -248 -380 -353 -830 -259
-1104 33 -96 34 -102 14 -65 -11 19 -34 78 -52 130 -30 88 -32 105 -32 230 -1
238 67 479 206 725 57 102 137 225 146 225 4 0 13 -13 19 -29z m301 -186 c0
-8 -22 -39 -49 -68 -98 -109 -136 -227 -135 -427 0 -155 28 -312 79 -442 4
-10 3 -18 -2 -18 -13 0 -80 207 -99 305 -56 299 -1 531 150 633 55 37 56 37
56 17z m-620 -109 c0 -1 -5 -17 -11 -34 l-11 -32 -371 -2 c-205 -2 -380 -1
-389 1 -23 4 -33 38 -18 56 11 13 74 15 406 15 217 0 394 -2 394 -4z m3150
-11 c15 -18 5 -52 -18 -56 -9 -2 -79 -3 -154 -1 l-136 3 -11 31 c-6 17 -11 33
-11 34 0 2 71 4 159 4 126 0 161 -3 171 -15z m571 -6 c9 -17 8 -25 -4 -36 -12
-12 -45 -15 -172 -15 -155 1 -185 7 -185 36 0 31 25 36 187 36 155 0 163 -1
174 -21z m-2815 -380 c35 -19 83 -36 134 -45 81 -14 109 -11 111 10 0 6 2 19
4 29 2 9 0 17 -5 17 -8 0 -71 92 -66 98 2 1 31 -15 64 -37 140 -93 295 -158
451 -187 111 -22 319 -21 425 0 44 9 81 14 83 12 2 -2 11 -50 19 -106 26 -173
78 -310 138 -359 25 -21 22 -204 -4 -307 -95 -371 -431 -616 -845 -616 -271 0
-509 98 -671 276 -142 154 -204 325 -204 557 l0 112 55 87 c94 149 132 257
160 450 8 58 15 111 15 117 0 7 19 -8 41 -32 23 -25 66 -59 95 -76z m-1021 39
c-4 -18 -9 -36 -11 -40 -5 -9 -614 -11 -648 -2 -28 7 -39 28 -31 55 6 18 24
19 351 19 l346 0 -7 -32z m3836 10 c10 -18 8 -24 -11 -40 -21 -17 -49 -18
-391 -17 -203 0 -371 4 -373 7 -2 4 -7 22 -11 40 l-7 32 391 0 390 0 12 -22z
m-4075 -334 c4 -15 2 -30 -5 -37 -13 -13 -350 -23 -407 -12 -34 6 -48 26 -39
56 6 18 21 19 225 19 l220 0 6 -26z m3414 11 c28 -34 -14 -71 -71 -63 -20 2
-25 10 -27 41 l-3 37 44 0 c27 0 49 -6 57 -15z m659 1 c14 -17 5 -43 -20 -56
-24 -13 -325 -13 -350 0 -18 10 -26 50 -12 63 3 4 88 7 188 7 143 0 185 -3
194 -14z m-3353 -62 c17 -4 32 -31 62 -107 39 -98 41 -107 44 -235 4 -156 -1
-161 -82 -86 -131 122 -183 377 -87 419 37 17 36 16 63 9z m2181 -31 c63 -85
-41 -368 -158 -429 -15 -7 -29 -14 -31 -14 -2 0 -2 56 -2 124 2 111 5 128 26
162 21 35 66 131 81 176 5 14 12 15 39 7 18 -5 39 -16 45 -26z m-2598 -254 c6
-18 11 -36 11 -40 0 -5 -166 -9 -369 -9 -323 0 -372 2 -385 16 -18 17 -19 24
-10 48 5 14 48 16 374 16 l368 0 11 -31z m3772 9 c10 -18 8 -24 -11 -40 -21
-17 -49 -18 -382 -18 -228 0 -366 4 -379 10 -21 12 -25 40 -7 58 9 9 109 12
390 12 l377 0 12 -22z m-3657 -34 c3 -8 2 -12 -4 -9 -6 3 -10 10 -10 16 0 14
7 11 14 -7z m187 -462 c-8 -3 -54 -24 -101 -48 -136 -68 -273 -198 -341 -324
-9 -16 -21 -35 -26 -42 -34 -45 -77 -220 -200 -823 -63 -310 -65 -324 -60
-435 5 -128 30 -222 92 -345 33 -68 33 -69 7 -38 -48 56 -101 155 -129 238
-20 62 -27 107 -31 200 -4 120 -4 122 82 545 47 234 95 463 106 510 62 263
245 470 499 566 78 30 87 31 101 17 13 -13 13 -16 1 -21z m2665 -547 c42 -17
89 -66 110 -112 16 -38 18 -114 4 -250 -5 -54 -19 -201 -29 -328 -92 -1053
-91 -1049 -110 -1091 -37 -80 80 -74 -1458 -74 -1321 0 -1369 1 -1399 19 -52
32 -60 65 -84 336 -11 138 -41 477 -65 755 -25 278 -45 527 -45 554 0 85 54
164 132 196 14 5 610 9 1466 9 1260 1 1447 -1 1478 -14z m-3149 -467 c-3 -8
-6 -5 -6 6 -1 11 2 17 5 13 3 -3 4 -12 1 -19z m184 -1414 c7 -8 31 -25 53 -37
l41 -22 1385 -3 c1511 -3 1426 -6 1494 53 20 17 41 25 68 25 l39 0 -17 -32
c-25 -48 -106 -124 -160 -150 l-49 -23 -1370 0 -1370 0 -51 29 c-58 31 -109
82 -143 139 l-23 37 45 0 c28 0 49 -6 58 -16z"/>
<path d="M4648 4900 c-44 -13 -84 -41 -102 -71 -20 -33 -18 -34 48 -14 63 19
136 19 210 0 33 -9 61 -13 63 -11 7 7 -20 42 -48 64 -48 38 -113 50 -171 32z"/>
<path d="M5490 4897 c-37 -12 -121 -88 -103 -94 7 -3 35 3 64 11 67 20 151 20
218 0 29 -8 55 -13 57 -11 10 10 -53 71 -91 88 -45 21 -93 23 -145 6z"/>
<path d="M4705 4740 c-27 -11 -61 -49 -74 -83 -27 -71 3 -173 60 -202 108 -56
201 92 139 220 -26 54 -82 83 -125 65z m83 -103 c4 -36 -15 -62 -34 -46 -15
12 -19 61 -7 73 15 15 38 0 41 -27z"/>
<path d="M5490 4732 c-47 -23 -73 -71 -73 -136 0 -120 92 -194 167 -135 88 69
76 235 -20 275 -40 17 -32 17 -74 -4z m36 -86 c7 -30 -11 -67 -31 -60 -20 8
-28 40 -15 64 15 27 38 25 46 -4z"/>
<path d="M4870 4264 c0 -4 11 -22 25 -40 58 -76 185 -97 284 -48 60 30 62 38
6 23 -21 -6 -75 -9 -120 -7 -75 3 -86 6 -138 41 -32 20 -57 34 -57 31z"/>
<path d="M5045 3186 c-74 -19 -132 -52 -197 -114 -69 -66 -111 -146 -128 -244
-22 -127 23 -273 115 -376 36 -40 45 -57 45 -87 0 -29 8 -45 34 -71 l33 -33
109 0 c60 1 147 -1 193 -4 64 -4 92 -2 114 9 29 16 57 66 57 105 0 12 22 45
49 75 106 116 145 269 106 417 -21 83 -50 133 -111 197 -112 117 -267 164
-419 126z m254 -90 c75 -37 115 -71 155 -129 104 -154 82 -364 -53 -490 -44
-41 -50 -52 -53 -93 -2 -31 -9 -51 -20 -58 -26 -16 -52 4 -56 43 -4 38 -26 37
-30 -2 -2 -15 -13 -32 -24 -38 -18 -10 -25 -8 -40 11 -11 13 -17 29 -14 36 3
7 -2 18 -9 24 -16 13 -20 7 -27 -34 -8 -51 -69 -44 -78 10 -6 36 -25 37 -25 2
-1 -36 -18 -52 -48 -44 -21 5 -25 13 -30 58 -6 44 -13 59 -50 97 -58 61 -83
105 -103 181 -49 193 73 402 263 450 67 17 185 5 242 -24z"/>
<path d="M4964 2814 c-34 -16 -54 -50 -54 -90 0 -91 108 -138 171 -75 53 53
34 137 -37 167 -41 17 -42 17 -80 -2z"/>
<path d="M5254 2820 c-32 -13 -64 -59 -64 -92 0 -87 82 -134 156 -89 66 40 68
125 5 168 -35 24 -62 28 -97 13z"/>
</g>
</svg>
